<?xml version="1.0" encoding="UTF-8" standalone="no"?>
<!DOCTYPE svg PUBLIC "-//W3C//DTD SVG 1.1//EN"
 "http://www.w3.org/Graphics/SVG/1.1/DTD/svg11.dtd">
<!-- Generated by graphviz version 9.0.0 (20230911.1827)
 -->
<!-- Title: Tree Pages: 1 -->
<svg width="1806pt" height="396pt"
 viewBox="0.00 0.00 1806.00 395.50" xmlns="http://www.w3.org/2000/svg" xmlns:xlink="http://www.w3.org/1999/xlink">
<g id="graph0" class="graph" transform="scale(1 1) rotate(0) translate(4 391.5)">
<title>Tree</title>
<polygon fill="white" stroke="none" points="-4,4 -4,-391.5 1802,-391.5 1802,4 -4,4"/>
<!-- 0 -->
<g id="node1" class="node">
<title>0</title>
<path fill="none" stroke="black" d="M991.12,-387.5C991.12,-387.5 798.88,-387.5 798.88,-387.5 792.88,-387.5 786.88,-381.5 786.88,-375.5 786.88,-375.5 786.88,-325.5 786.88,-325.5 786.88,-319.5 792.88,-313.5 798.88,-313.5 798.88,-313.5 991.12,-313.5 991.12,-313.5 997.12,-313.5 1003.12,-319.5 1003.12,-325.5 1003.12,-325.5 1003.12,-375.5 1003.12,-375.5 1003.12,-381.5 997.12,-387.5 991.12,-387.5"/>
<text text-anchor="middle" x="895" y="-370.2" font-family="Helvetica,sans-Serif" font-size="14.00">Years of Experience &lt;= 5.5</text>
<text text-anchor="middle" x="895" y="-353.7" font-family="Helvetica,sans-Serif" font-size="14.00">squared_error = 2837602962.1</text>
<text text-anchor="middle" x="895" y="-337.2" font-family="Helvetica,sans-Serif" font-size="14.00">samples = 3432</text>
<text text-anchor="middle" x="895" y="-320.7" font-family="Helvetica,sans-Serif" font-size="14.00">value = 115143.7</text>
</g>
<!-- 1 -->
<g id="node2" class="node">
<title>1</title>
<path fill="none" stroke="black" d="M763.12,-277.5C763.12,-277.5 570.88,-277.5 570.88,-277.5 564.88,-277.5 558.88,-271.5 558.88,-265.5 558.88,-265.5 558.88,-215.5 558.88,-215.5 558.88,-209.5 564.88,-203.5 570.88,-203.5 570.88,-203.5 763.12,-203.5 763.12,-203.5 769.12,-203.5 775.12,-209.5 775.12,-215.5 775.12,-215.5 775.12,-265.5 775.12,-265.5 775.12,-271.5 769.12,-277.5 763.12,-277.5"/>
<text text-anchor="middle" x="667" y="-260.2" font-family="Helvetica,sans-Serif" font-size="14.00">Years of Experience &lt;= 2.5</text>
<text text-anchor="middle" x="667" y="-243.7" font-family="Helvetica,sans-Serif" font-size="14.00">squared_error = 1035682394.3</text>
<text text-anchor="middle" x="667" y="-227.2" font-family="Helvetica,sans-Serif" font-size="14.00">samples = 1452</text>
<text text-anchor="middle" x="667" y="-210.7" font-family="Helvetica,sans-Serif" font-size="14.00">value = 68329.9</text>
</g>
<!-- 0&#45;&gt;1 -->
<g id="edge1" class="edge">
<title>0&#45;&gt;1</title>
<path fill="none" stroke="black" d="M818.13,-313.09C797.57,-303.35 775.21,-292.76 754.15,-282.78"/>
<polygon fill="black" stroke="black" points="755.83,-279.7 745.29,-278.59 752.83,-286.03 755.83,-279.7"/>
<text text-anchor="middle" x="752.33" y="-296.43" font-family="Helvetica,sans-Serif" font-size="14.00">True</text>
</g>
<!-- 8 -->
<g id="node9" class="node">
<title>8</title>
<path fill="none" stroke="black" d="M1221.12,-277.5C1221.12,-277.5 1028.88,-277.5 1028.88,-277.5 1022.88,-277.5 1016.88,-271.5 1016.88,-265.5 1016.88,-265.5 1016.88,-215.5 1016.88,-215.5 1016.88,-209.5 1022.88,-203.5 1028.88,-203.5 1028.88,-203.5 1221.12,-203.5 1221.12,-203.5 1227.12,-203.5 1233.12,-209.5 1233.12,-215.5 1233.12,-215.5 1233.12,-265.5 1233.12,-265.5 1233.12,-271.5 1227.12,-277.5 1221.12,-277.5"/>
<text text-anchor="middle" x="1125" y="-260.2" font-family="Helvetica,sans-Serif" font-size="14.00">Years of Experience &lt;= 10.5</text>
<text text-anchor="middle" x="1125" y="-243.7" font-family="Helvetica,sans-Serif" font-size="14.00">squared_error = 1399805727.3</text>
<text text-anchor="middle" x="1125" y="-227.2" font-family="Helvetica,sans-Serif" font-size="14.00">samples = 1980</text>
<text text-anchor="middle" x="1125" y="-210.7" font-family="Helvetica,sans-Serif" font-size="14.00">value = 149128.3</text>
</g>
<!-- 0&#45;&gt;8 -->
<g id="edge8" class="edge">
<title>0&#45;&gt;8</title>
<path fill="none" stroke="black" d="M972.55,-313.09C993.28,-303.35 1015.84,-292.76 1037.09,-282.78"/>
<polygon fill="black" stroke="black" points="1038.46,-286 1046.03,-278.58 1035.49,-279.66 1038.46,-286"/>
<text text-anchor="middle" x="1038.91" y="-296.4" font-family="Helvetica,sans-Serif" font-size="14.00">False</text>
</g>
<!-- 2 -->
<g id="node3" class="node">
<title>2</title>
<path fill="none" stroke="black" d="M422,-167.5C422,-167.5 238,-167.5 238,-167.5 232,-167.5 226,-161.5 226,-155.5 226,-155.5 226,-105.5 226,-105.5 226,-99.5 232,-93.5 238,-93.5 238,-93.5 422,-93.5 422,-93.5 428,-93.5 434,-99.5 434,-105.5 434,-105.5 434,-155.5 434,-155.5 434,-161.5 428,-167.5 422,-167.5"/>
<text text-anchor="middle" x="330" y="-150.2" font-family="Helvetica,sans-Serif" font-size="14.00">Years of Experience &lt;= 1.8</text>
<text text-anchor="middle" x="330" y="-133.7" font-family="Helvetica,sans-Serif" font-size="14.00">squared_error = 509538982.2</text>
<text text-anchor="middle" x="330" y="-117.2" font-family="Helvetica,sans-Serif" font-size="14.00">samples = 674</text>
<text text-anchor="middle" x="330" y="-100.7" font-family="Helvetica,sans-Serif" font-size="14.00">value = 50075.6</text>
</g>
<!-- 1&#45;&gt;2 -->
<g id="edge2" class="edge">
<title>1&#45;&gt;2</title>
<path fill="none" stroke="black" d="M558.52,-204.73C522.26,-193.12 481.75,-180.13 445.02,-168.36"/>
<polygon fill="black" stroke="black" points="446.29,-165.09 435.7,-165.37 444.16,-171.76 446.29,-165.09"/>
</g>
<!-- 5 -->
<g id="node6" class="node">
<title>5</title>
<path fill="none" stroke="black" d="M759,-167.5C759,-167.5 575,-167.5 575,-167.5 569,-167.5 563,-161.5 563,-155.5 563,-155.5 563,-105.5 563,-105.5 563,-99.5 569,-93.5 575,-93.5 575,-93.5 759,-93.5 759,-93.5 765,-93.5 771,-99.5 771,-105.5 771,-105.5 771,-155.5 771,-155.5 771,-161.5 765,-167.5 759,-167.5"/>
<text text-anchor="middle" x="667" y="-150.2" font-family="Helvetica,sans-Serif" font-size="14.00">Years of Experience &lt;= 4.5</text>
<text text-anchor="middle" x="667" y="-133.7" font-family="Helvetica,sans-Serif" font-size="14.00">squared_error = 949697702.2</text>
<text text-anchor="middle" x="667" y="-117.2" font-family="Helvetica,sans-Serif" font-size="14.00">samples = 778</text>
<text text-anchor="middle" x="667" y="-100.7" font-family="Helvetica,sans-Serif" font-size="14.00">value = 84287.1</text>
</g>
<!-- 1&#45;&gt;5 -->
<g id="edge5" class="edge">
<title>1&#45;&gt;5</title>
<path fill="none" stroke="black" d="M667,-203.24C667,-195.49 667,-187.2 667,-179.1"/>
<polygon fill="black" stroke="black" points="670.5,-179.36 667,-169.36 663.5,-179.36 670.5,-179.36"/>
</g>
<!-- 3 -->
<g id="node4" class="node">
<title>3</title>
<path fill="none" stroke="black" d="M196,-57.5C196,-57.5 12,-57.5 12,-57.5 6,-57.5 0,-51.5 0,-45.5 0,-45.5 0,-12 0,-12 0,-6 6,0 12,0 12,0 196,0 196,0 202,0 208,-6 208,-12 208,-12 208,-45.5 208,-45.5 208,-51.5 202,-57.5 196,-57.5"/>
<text text-anchor="middle" x="104" y="-40.2" font-family="Helvetica,sans-Serif" font-size="14.00">squared_error = 402125859.3</text>
<text text-anchor="middle" x="104" y="-23.7" font-family="Helvetica,sans-Serif" font-size="14.00">samples = 365</text>
<text text-anchor="middle" x="104" y="-7.2" font-family="Helvetica,sans-Serif" font-size="14.00">value = 43201.3</text>
</g>
<!-- 2&#45;&gt;3 -->
<g id="edge3" class="edge">
<title>2&#45;&gt;3</title>
<path fill="none" stroke="black" d="M247.45,-93.06C224.81,-83.07 200.4,-72.3 178.26,-62.53"/>
<polygon fill="black" stroke="black" points="179.87,-59.41 169.31,-58.57 177.04,-65.81 179.87,-59.41"/>
</g>
<!-- 4 -->
<g id="node5" class="node">
<title>4</title>
<path fill="none" stroke="black" d="M422,-57.5C422,-57.5 238,-57.5 238,-57.5 232,-57.5 226,-51.5 226,-45.5 226,-45.5 226,-12 226,-12 226,-6 232,0 238,0 238,0 422,0 422,0 428,0 434,-6 434,-12 434,-12 434,-45.5 434,-45.5 434,-51.5 428,-57.5 422,-57.5"/>
<text text-anchor="middle" x="330" y="-40.2" font-family="Helvetica,sans-Serif" font-size="14.00">squared_error = 512460170.0</text>
<text text-anchor="middle" x="330" y="-23.7" font-family="Helvetica,sans-Serif" font-size="14.00">samples = 309</text>
<text text-anchor="middle" x="330" y="-7.2" font-family="Helvetica,sans-Serif" font-size="14.00">value = 58479.1</text>
</g>
<!-- 2&#45;&gt;4 -->
<g id="edge4" class="edge">
<title>2&#45;&gt;4</title>
<path fill="none" stroke="black" d="M330,-93.21C330,-85.35 330,-77 330,-69.03"/>
<polygon fill="black" stroke="black" points="333.5,-69.24 330,-59.24 326.5,-69.24 333.5,-69.24"/>
</g>
<!-- 6 -->
<g id="node7" class="node">
<title>6</title>
<path fill="none" stroke="black" d="M648,-57.5C648,-57.5 464,-57.5 464,-57.5 458,-57.5 452,-51.5 452,-45.5 452,-45.5 452,-12 452,-12 452,-6 458,0 464,0 464,0 648,0 648,0 654,0 660,-6 660,-12 660,-12 660,-45.5 660,-45.5 660,-51.5 654,-57.5 648,-57.5"/>
<text text-anchor="middle" x="556" y="-40.2" font-family="Helvetica,sans-Serif" font-size="14.00">squared_error = 795958161.5</text>
<text text-anchor="middle" x="556" y="-23.7" font-family="Helvetica,sans-Serif" font-size="14.00">samples = 587</text>
<text text-anchor="middle" x="556" y="-7.2" font-family="Helvetica,sans-Serif" font-size="14.00">value = 78068.1</text>
</g>
<!-- 5&#45;&gt;6 -->
<g id="edge6" class="edge">
<title>5&#45;&gt;6</title>
<path fill="none" stroke="black" d="M626.61,-93.21C616.44,-84.07 605.54,-74.27 595.42,-65.17"/>
<polygon fill="black" stroke="black" points="598.04,-62.82 588.26,-58.74 593.36,-68.03 598.04,-62.82"/>
</g>
<!-- 7 -->
<g id="node8" class="node">
<title>7</title>
<path fill="none" stroke="black" d="M874,-57.5C874,-57.5 690,-57.5 690,-57.5 684,-57.5 678,-51.5 678,-45.5 678,-45.5 678,-12 678,-12 678,-6 684,0 690,0 690,0 874,0 874,0 880,0 886,-6 886,-12 886,-12 886,-45.5 886,-45.5 886,-51.5 880,-57.5 874,-57.5"/>
<text text-anchor="middle" x="782" y="-40.2" font-family="Helvetica,sans-Serif" font-size="14.00">squared_error = 943639428.8</text>
<text text-anchor="middle" x="782" y="-23.7" font-family="Helvetica,sans-Serif" font-size="14.00">samples = 191</text>
<text text-anchor="middle" x="782" y="-7.2" font-family="Helvetica,sans-Serif" font-size="14.00">value = 103111.0</text>
</g>
<!-- 5&#45;&gt;7 -->
<g id="edge7" class="edge">
<title>5&#45;&gt;7</title>
<path fill="none" stroke="black" d="M708.84,-93.21C719.38,-84.07 730.67,-74.27 741.16,-65.17"/>
<polygon fill="black" stroke="black" points="743.34,-67.92 748.6,-58.72 738.75,-62.63 743.34,-67.92"/>
</g>
<!-- 9 -->
<g id="node10" class="node">
<title>9</title>
<path fill="none" stroke="black" d="M1221.12,-167.5C1221.12,-167.5 1028.88,-167.5 1028.88,-167.5 1022.88,-167.5 1016.88,-161.5 1016.88,-155.5 1016.88,-155.5 1016.88,-105.5 1016.88,-105.5 1016.88,-99.5 1022.88,-93.5 1028.88,-93.5 1028.88,-93.5 1221.12,-93.5 1221.12,-93.5 1227.12,-93.5 1233.12,-99.5 1233.12,-105.5 1233.12,-105.5 1233.12,-155.5 1233.12,-155.5 1233.12,-161.5 1227.12,-167.5 1221.12,-167.5"/>
<text text-anchor="middle" x="1125" y="-150.2" font-family="Helvetica,sans-Serif" font-size="14.00">Age &lt;= 31.5</text>
<text text-anchor="middle" x="1125" y="-133.7" font-family="Helvetica,sans-Serif" font-size="14.00">squared_error = 1071026418.9</text>
<text text-anchor="middle" x="1125" y="-117.2" font-family="Helvetica,sans-Serif" font-size="14.00">samples = 907</text>
<text text-anchor="middle" x="1125" y="-100.7" font-family="Helvetica,sans-Serif" font-size="14.00">value = 124406.7</text>
</g>
<!-- 8&#45;&gt;9 -->
<g id="edge9" class="edge">
<title>8&#45;&gt;9</title>
<path fill="none" stroke="black" d="M1125,-203.24C1125,-195.49 1125,-187.2 1125,-179.1"/>
<polygon fill="black" stroke="black" points="1128.5,-179.36 1125,-169.36 1121.5,-179.36 1128.5,-179.36"/>
</g>
<!-- 12 -->
<g id="node13" class="node">
<title>12</title>
<path fill="none" stroke="black" d="M1560,-167.5C1560,-167.5 1376,-167.5 1376,-167.5 1370,-167.5 1364,-161.5 1364,-155.5 1364,-155.5 1364,-105.5 1364,-105.5 1364,-99.5 1370,-93.5 1376,-93.5 1376,-93.5 1560,-93.5 1560,-93.5 1566,-93.5 1572,-99.5 1572,-105.5 1572,-105.5 1572,-155.5 1572,-155.5 1572,-161.5 1566,-167.5 1560,-167.5"/>
<text text-anchor="middle" x="1468" y="-150.2" font-family="Helvetica,sans-Serif" font-size="14.00">Years of Experience &lt;= 15.5</text>
<text text-anchor="middle" x="1468" y="-133.7" font-family="Helvetica,sans-Serif" font-size="14.00">squared_error = 738917390.3</text>
<text text-anchor="middle" x="1468" y="-117.2" font-family="Helvetica,sans-Serif" font-size="14.00">samples = 1073</text>
<text text-anchor="middle" x="1468" y="-100.7" font-family="Helvetica,sans-Serif" font-size="14.00">value = 169751.6</text>
</g>
<!-- 8&#45;&gt;12 -->
<g id="edge12" class="edge">
<title>8&#45;&gt;12</title>
<path fill="none" stroke="black" d="M1233.53,-205.33C1271.56,-193.35 1314.39,-179.87 1352.94,-167.73"/>
<polygon fill="black" stroke="black" points="1353.76,-171.14 1362.25,-164.8 1351.66,-164.46 1353.76,-171.14"/>
</g>
<!-- 10 -->
<g id="node11" class="node">
<title>10</title>
<path fill="none" stroke="black" d="M1108.12,-57.5C1108.12,-57.5 915.88,-57.5 915.88,-57.5 909.88,-57.5 903.88,-51.5 903.88,-45.5 903.88,-45.5 903.88,-12 903.88,-12 903.88,-6 909.88,0 915.88,0 915.88,0 1108.12,0 1108.12,0 1114.12,0 1120.12,-6 1120.12,-12 1120.12,-12 1120.12,-45.5 1120.12,-45.5 1120.12,-51.5 1114.12,-57.5 1108.12,-57.5"/>
<text text-anchor="middle" x="1012" y="-40.2" font-family="Helvetica,sans-Serif" font-size="14.00">squared_error = 1299973984.1</text>
<text text-anchor="middle" x="1012" y="-23.7" font-family="Helvetica,sans-Serif" font-size="14.00">samples = 280</text>
<text text-anchor="middle" x="1012" y="-7.2" font-family="Helvetica,sans-Serif" font-size="14.00">value = 140668.2</text>
</g>
<!-- 9&#45;&gt;10 -->
<g id="edge10" class="edge">
<title>9&#45;&gt;10</title>
<path fill="none" stroke="black" d="M1083.88,-93.21C1073.53,-84.07 1062.43,-74.27 1052.13,-65.17"/>
<polygon fill="black" stroke="black" points="1054.64,-62.72 1044.83,-58.73 1050.01,-67.97 1054.64,-62.72"/>
</g>
<!-- 11 -->
<g id="node12" class="node">
<title>11</title>
<path fill="none" stroke="black" d="M1334,-57.5C1334,-57.5 1150,-57.5 1150,-57.5 1144,-57.5 1138,-51.5 1138,-45.5 1138,-45.5 1138,-12 1138,-12 1138,-6 1144,0 1150,0 1150,0 1334,0 1334,0 1340,0 1346,-6 1346,-12 1346,-12 1346,-45.5 1346,-45.5 1346,-51.5 1340,-57.5 1334,-57.5"/>
<text text-anchor="middle" x="1242" y="-40.2" font-family="Helvetica,sans-Serif" font-size="14.00">squared_error = 802238606.1</text>
<text text-anchor="middle" x="1242" y="-23.7" font-family="Helvetica,sans-Serif" font-size="14.00">samples = 627</text>
<text text-anchor="middle" x="1242" y="-7.2" font-family="Helvetica,sans-Serif" font-size="14.00">value = 117240.4</text>
</g>
<!-- 9&#45;&gt;11 -->
<g id="edge11" class="edge">
<title>9&#45;&gt;11</title>
<path fill="none" stroke="black" d="M1167.57,-93.21C1178.29,-84.07 1189.78,-74.27 1200.45,-65.17"/>
<polygon fill="black" stroke="black" points="1202.69,-67.86 1208.03,-58.71 1198.15,-62.53 1202.69,-67.86"/>
</g>
<!-- 13 -->
<g id="node14" class="node">
<title>13</title>
<path fill="none" stroke="black" d="M1560,-57.5C1560,-57.5 1376,-57.5 1376,-57.5 1370,-57.5 1364,-51.5 1364,-45.5 1364,-45.5 1364,-12 1364,-12 1364,-6 1370,0 1376,0 1376,0 1560,0 1560,0 1566,0 1572,-6 1572,-12 1572,-12 1572,-45.5 1572,-45.5 1572,-51.5 1566,-57.5 1560,-57.5"/>
<text text-anchor="middle" x="1468" y="-40.2" font-family="Helvetica,sans-Serif" font-size="14.00">squared_error = 647157399.4</text>
<text text-anchor="middle" x="1468" y="-23.7" font-family="Helvetica,sans-Serif" font-size="14.00">samples = 605</text>
<text text-anchor="middle" x="1468" y="-7.2" font-family="Helvetica,sans-Serif" font-size="14.00">value = 157427.6</text>
</g>
<!-- 12&#45;&gt;13 -->
<g id="edge13" class="edge">
<title>12&#45;&gt;13</title>
<path fill="none" stroke="black" d="M1468,-93.21C1468,-85.35 1468,-77 1468,-69.03"/>
<polygon fill="black" stroke="black" points="1471.5,-69.24 1468,-59.24 1464.5,-69.24 1471.5,-69.24"/>
</g>
<!-- 14 -->
<g id="node15" class="node">
<title>14</title>
<path fill="none" stroke="black" d="M1786,-57.5C1786,-57.5 1602,-57.5 1602,-57.5 1596,-57.5 1590,-51.5 1590,-45.5 1590,-45.5 1590,-12 1590,-12 1590,-6 1596,0 1602,0 1602,0 1786,0 1786,0 1792,0 1798,-6 1798,-12 1798,-12 1798,-45.5 1798,-45.5 1798,-51.5 1792,-57.5 1786,-57.5"/>
<text text-anchor="middle" x="1694" y="-40.2" font-family="Helvetica,sans-Serif" font-size="14.00">squared_error = 413408172.3</text>
<text text-anchor="middle" x="1694" y="-23.7" font-family="Helvetica,sans-Serif" font-size="14.00">samples = 468</text>
<text text-anchor="middle" x="1694" y="-7.2" font-family="Helvetica,sans-Serif" font-size="14.00">value = 185518.4</text>
</g>
<!-- 12&#45;&gt;14 -->
<g id="edge14" class="edge">
<title>12&#45;&gt;14</title>
<path fill="none" stroke="black" d="M1550.55,-93.06C1573.19,-83.07 1597.6,-72.3 1619.74,-62.53"/>
<polygon fill="black" stroke="black" points="1620.96,-65.81 1628.69,-58.57 1618.13,-59.41 1620.96,-65.81"/>
</g>
</g>
</svg>
